<?xml version="1.0" encoding="utf-8"?>
<!-- Generator: Adobe Illustrator 23.0.5, SVG Export Plug-In . SVG Version: 6.00 Build 0)  -->
<svg version="1.1" id="Layer_1" xmlns="http://www.w3.org/2000/svg" xmlns:xlink="http://www.w3.org/1999/xlink" x="0px" y="0px"
	 viewBox="0 0 832.1 765.8" enable-background="new 0 0 832.1 765.8" xml:space="preserve">
<path d="M417.1,108.5c144.4,0.4,259.6,115.9,260.6,261.1c1,141.8-118,260.7-261.7,261.4c-143.1,0.7-260.3-119.6-259.5-266.4
	C157.4,221.4,272.8,108,417.1,108.5z M418.4,492.5c69.7-0.4,122.2-53.4,122-123.2c-0.3-71.4-54-126.1-124.1-126.5
	c-67.9-0.4-126.7,58.6-125.8,126.4C291.3,438.6,347.6,492.9,418.4,492.5z"/>
<path fill="#FF6D33" d="M324.6,366.2c0.5-51.3,41-89.3,95.2-89.4c49.9-0.1,88.9,42.2,88.5,96.1c-0.3,48.2-44.4,90.4-92.6,88.7
	C365.5,459.8,324.2,416.5,324.6,366.2z"/>
</svg>
