<?xml version="1.0" encoding="utf-8"?>
<!-- Generator: Adobe Illustrator 23.0.5, SVG Export Plug-In . SVG Version: 6.00 Build 0)  -->
<svg version="1.1" id="Layer_1" xmlns="http://www.w3.org/2000/svg" xmlns:xlink="http://www.w3.org/1999/xlink" x="0px" y="0px"
	 viewBox="0 0 713.8 303.1" enable-background="new 0 0 713.8 303.1" xml:space="preserve">
<path fill="#F37421" d="M292.6,48.6c0,0-35.1-10.8-57.6,16.2c-0.7-0.1-1.2-0.3-1.5-0.5c-4.6-3.5,4.3-22.2,6-25.8
	c-0.7-6.3-2.4-13-7.2-15.3c-11.5-5.4-33.1,18.1-47.7,33.9c-12.6,13.7-28.6,33.3-44.4,59.7c3.4-16.1,6.8-32.2,10.2-48.3
	c0,0,10.8-45-33.3-6.3l-37.8,61.2l29.7-83.6c0,0,1.8-31.5-14.4-21.6L18.3,221.4c0,0-10.8,25.2,0,31.5c0,0,7.2,18,17.1-15.3
	c0,0,47.7-121.4,92.7-163.7c0,0,17.1,27-44.1,158.3c0,0-5.4,42.3,16.2,17.1c0,0,22.5-107,105.2-195.2c0,0,14.4,13.5-38.7,150.2
	c0,0-44.1,105.2,36,78.3c0,0,42.3-25.2,89.9-117.8c0,0,24.3,0,43.2-19.8l-17.1-16.2c0,0-55.8,52.2-81.9-16.2l108.8-0.9
	C345.7,111.6,346.6,66.6,292.6,48.6z M279.1,163.5C197,302,179,260.6,179,260.6c-18-13.2,34.2-137.9,34.2-137.9
	C231.7,172.5,279.1,163.5,279.1,163.5z M236.5,93.6c7.4-17.3,24.7-28.5,43.5-28.2c18.6,0.3,35.3,11.8,42.3,29.1
	C293.7,94.2,265.1,93.9,236.5,93.6z"/>
<path fill="#F37421" d="M368.2,56.1c-0.3,36.3-0.6,72.7-0.9,109l28.8,0.4c-0.2-23.4-0.4-46.8-0.6-70.2c4.3-13.5,15.9-22.8,28.7-23.2
	c13.8-0.4,22.7,9.6,24,11l-0.4,82.8c8.3-0.1,16.7-0.3,25-0.4c0.2-28.6,0.4-57.3,0.6-85.9c-0.9-2.1-9.1-21.7-29.1-26.6
	c-18.6-4.5-39.5,5.4-49.7,24.9c-0.2-7.2-0.4-14.4-0.6-21.6C385.3,56.3,376.8,56.2,368.2,56.1z"/>
<path fill="#F37421" d="M514.2,22.3c-0.2,10.7-0.5,21.5-0.7,32.2c-7.2,0.1-14.5,0.3-21.7,0.4c0,7.6,0,15.2,0,22.8
	c7.2,0.3,14.5,0.7,21.7,1l-0.4,86.4c7.9,0,15.8,0.1,23.7,0.1c0.5-29.1,1-58.3,1.5-87.4c8.1,0,16.2,0.1,24.3,0.1
	c0.1-7.2,0.3-14.5,0.4-21.7H540l-0.9-34.2C530.8,22.2,522.5,22.2,514.2,22.3z"/>
<path fill="#F37421" d="M697.6,84.2c-1.3-5.1-7.9-27.3-30.1-40.5c-14.2-8.4-28-9.1-34.5-9c-5.9,0.2-24.8,1.5-42,15.7
	c-20,16.6-23.5,38.9-24.1,44.1c0,0-5.4,61.2,52.6,74.7c6.6,1.2,16.3,2.1,27.7,0c20.4-3.7,33.9-14.9,39.6-20.3
	c3.8-5.5,8.9-14.5,11.7-26.6C702.3,105.4,699.5,91.3,697.6,84.2z M653.2,145.8c0,1-0.8,1.8-1.8,1.8h-38.1c-1,0-1.8-0.8-1.8-1.8V63.3
	c0-1,0.8-1.8,1.8-1.8h38.1c1,0,1.8,0.8,1.8,1.8V145.8z"/>
<g>
	<path fill="#282929" d="M201.7,232.9c5.8,4.8,13.2,8.2,19.3,8.2c6.6,0,9.4-2.2,9.4-6c0-4-4.2-5.3-11.2-8.2l-10.3-4.4
		c-8.9-3.7-16.6-11.3-16.6-23.6c0-14.5,12.7-26.3,30.7-26.3c9.4,0,19.8,3.7,27.4,11.3l-10.9,14.1c-5.6-4-10.4-6.1-16.5-6.1
		c-5.3,0-8.6,2-8.6,5.7c0,4,4.7,5.5,12.2,8.5l10,4c10.3,4.2,16.1,11.5,16.1,23.2c0,14.3-11.7,27.1-32.2,27.1
		c-10.4,0-22.3-3.9-31.2-12.1L201.7,232.9z"/>
	<path fill="#282929" d="M292.3,192c16.2,0,31.4,12.5,31.4,34.2c0,21.7-15.2,34.2-31.4,34.2s-31.4-12.5-31.4-34.2
		C260.8,204.6,276,192,292.3,192z M292.3,242.4c6.6,0,9.1-6.3,9.1-16.2c0-9.9-2.5-16.2-9.1-16.2s-9.1,6.3-9.1,16.2
		C283.1,236.1,285.7,242.4,292.3,242.4z"/>
	<path fill="#282929" d="M416.5,258c-3.3,1-8,2.3-15,2.3c-16.5,0-23.3-10.7-23.3-26.6v-22.7h-18.3v47.7h-21.8v-47.7h-8.4v-16.7
		l8.4-0.7v-0.9c0-14,6.3-26.3,25.1-26.3c5.8,0,10.6,1.3,13.4,2.3l-3.8,16.4c-2-0.8-4.3-1.3-6.3-1.3c-4.1,0-6.6,2-6.6,8.1v1.6h19.5
		l2.5-17h18v17h14.5v17.5H400v22.3c0,7.2,3.5,9.5,7.6,9.5c2,0,4.1-0.5,5.6-1L416.5,258z"/>
	<path fill="#282929" d="M421.8,193.6h21.6l4.8,27.4c1,6.5,1.5,13,2.5,19.8h0.5c1-6.8,2-13.6,3.5-19.8l5.8-27.4h18.5l6.1,27.4
		c1.5,6.5,2.5,13,3.8,19.8h0.5c1-6.8,1.5-13.3,2.5-19.8l4.8-27.4h20l-14.5,65.2h-25.4l-4.6-22.7c-1-6-2-12-3-19.2H469
		c-1,7.2-1.8,13.2-2.8,19.2l-4.3,22.7H437L421.8,193.6z"/>
	<path fill="#282929" d="M558.5,216.6c-0.5-4.7-3.3-6.8-8.9-6.8c-4.6,0-9.4,1.8-16,5.5l-7.6-14.6c8.9-5.5,18-8.6,27.9-8.6
		c16.5,0,26.4,9.1,26.4,30.5v36.3h-17.7l-1.5-6.3h-0.5c-5.1,4.7-10.6,7.8-17.5,7.8c-11.9,0-19-9.4-19-20.1
		C524,226.7,534.1,219.2,558.5,216.6z M550.6,243.2c3.5,0,5.6-1.8,7.9-4.4v-8.9c-10.4,1.6-13.7,5-13.7,8.6
		C544.8,241.5,546.8,243.2,550.6,243.2z"/>
	<path fill="#282929" d="M594.7,193.6h17.7l1.5,11.2h0.5c4.7-8.9,11.8-12.8,18-12.8c3.9,0,6.1,0.5,7.9,1.3l-3.5,19.3
		c-2.3-0.5-4.3-1-7.1-1c-4.6,0-10.1,2.9-13.2,11v36.3h-21.8V193.6z"/>
	<path fill="#282929" d="M673.6,192c18.8,0,27.6,14.1,27.6,31.6c0,3.9-0.5,7.3-0.9,8.9h-36.1c2,8.3,7.6,11,14.7,11
		c4.3,0,8.4-1.3,12.9-3.9l7.1,13.3c-6.8,5-16,7.6-23.1,7.6c-18.5,0-32.7-12.5-32.7-34.2C643.1,205.1,658.1,192,673.6,192z
		 M682.7,218.9c0-5.5-2-9.9-8.6-9.9c-4.8,0-8.9,2.7-10.1,9.9H682.7z"/>
</g>
<g>
</g>
<g>
</g>
<g>
</g>
<g>
</g>
<g>
</g>
<g>
</g>
</svg>
