<svg xmlns="http://www.w3.org/2000/svg" width="596" height="1140" viewBox="0 0 596 1140" fill="none"><g clip-path="url(#clip0_6599_100)"><g opacity="0.12"><path d="M-24 1140C-365.868 1140 -644 861.867 -644 520C-644 178.131 -365.868 -99.9999 -24 -99.9999C317.868 -99.9999 596 178.131 596 520C596 861.867 317.868 1140 -24 1140Z" stroke="#2FA9DF" stroke-width="1.17741" stroke-miterlimit="10"></path><path d="M-24 1128.23C-359.377 1128.23 -632.226 855.377 -632.226 520C-632.226 184.623 -359.377 -88.2258 -24 -88.2258C311.377 -88.2258 584.226 184.623 584.226 520C584.226 855.377 311.377 1128.23 -24 1128.23Z" stroke="#2FA9DF" stroke-width="1.17741" stroke-miterlimit="10"></path><path d="M-23.999 1116.45C-352.884 1116.45 -620.452 848.884 -620.452 519.999C-620.452 191.114 -352.884 -76.4529 -23.999 -76.4529C304.885 -76.4529 572.452 191.114 572.452 519.999C572.452 848.884 304.885 1116.45 -23.999 1116.45Z" stroke="#2FA9DF" stroke-width="1.17741" stroke-miterlimit="10"></path><path d="M-23.9991 1104.68C-346.392 1104.68 -608.678 842.391 -608.678 519.999C-608.678 197.608 -346.392 -64.6785 -23.9991 -64.6785C298.392 -64.6785 560.677 197.608 560.677 519.999C560.677 842.391 298.392 1104.68 -23.9991 1104.68Z" stroke="#2FA9DF" stroke-width="1.17741" stroke-miterlimit="10"></path><path d="M-23.9991 1092.9C-339.9 1092.9 -596.904 835.901 -596.904 519.999C-596.904 204.098 -339.9 -52.9048 -23.9991 -52.9048C291.9 -52.9048 548.903 204.098 548.903 519.999C548.903 835.901 291.9 1092.9 -23.9991 1092.9Z" stroke="#2FA9DF" stroke-width="1.17741" stroke-miterlimit="10"></path><path d="M-23.9991 1081.13C-333.407 1081.13 -585.13 829.407 -585.13 519.999C-585.13 210.591 -333.407 -41.1306 -23.9991 -41.1306C285.408 -41.1306 537.129 210.591 537.129 519.999C537.129 829.407 285.408 1081.13 -23.9991 1081.13Z" stroke="#2FA9DF" stroke-width="1.17741" stroke-miterlimit="10"></path><path d="M-23.999 1069.35C-326.915 1069.35 -573.356 822.914 -573.356 519.999C-573.356 217.084 -326.915 -29.3567 -23.999 -29.3567C278.915 -29.3567 525.355 217.084 525.355 519.999C525.355 822.914 278.915 1069.35 -23.999 1069.35Z" stroke="#2FA9DF" stroke-width="1.17741" stroke-miterlimit="10"></path><path d="M-23.9991 1057.58C-320.423 1057.58 -561.582 816.424 -561.582 519.999C-561.582 223.575 -320.423 -17.5824 -23.9991 -17.5824C272.424 -17.5824 513.581 223.575 513.581 519.999C513.581 816.424 272.424 1057.58 -23.9991 1057.58Z" stroke="#2FA9DF" stroke-width="1.17741" stroke-miterlimit="10"></path><path d="M-23.9991 1045.81C-313.931 1045.81 -549.808 809.931 -549.808 519.999C-549.808 230.067 -313.931 -5.80859 -23.9991 -5.80859C265.931 -5.80859 501.807 230.067 501.807 519.999C501.807 809.931 265.931 1045.81 -23.9991 1045.81Z" stroke="#2FA9DF" stroke-width="1.17741" stroke-miterlimit="10"></path><path d="M-23.9991 1034.03C-307.437 1034.03 -538.034 803.437 -538.034 519.999C-538.034 236.561 -307.437 5.96574 -23.9991 5.96574C259.437 5.96574 490.033 236.561 490.033 519.999C490.033 803.437 259.437 1034.03 -23.9991 1034.03Z" stroke="#2FA9DF" stroke-width="1.17741" stroke-miterlimit="10"></path><path d="M-23.999 1022.26C-300.946 1022.26 -526.26 796.947 -526.26 519.999C-526.26 243.051 -300.946 17.7394 -23.999 17.7394C252.947 17.7394 478.259 243.051 478.259 519.999C478.259 796.947 252.947 1022.26 -23.999 1022.26Z" stroke="#2FA9DF" stroke-width="1.17741" stroke-miterlimit="10"></path><path d="M-23.999 1010.48C-294.454 1010.48 -514.485 790.453 -514.485 519.999C-514.485 249.544 -294.454 29.5135 -23.999 29.5135C246.455 29.5135 466.485 249.544 466.485 519.999C466.485 790.453 246.455 1010.48 -23.999 1010.48Z" stroke="#2FA9DF" stroke-width="1.17741" stroke-miterlimit="10"></path><path d="M-23.9989 998.71C-287.961 998.71 -502.711 783.961 -502.711 519.999C-502.711 256.036 -287.961 41.288 -23.9989 41.288C239.96 41.288 454.711 256.036 454.711 519.999C454.711 783.961 239.96 998.71 -23.9989 998.71Z" stroke="#2FA9DF" stroke-width="1.17741" stroke-miterlimit="10"></path><path d="M-23.9991 986.936C-281.47 986.936 -490.937 777.471 -490.937 519.999C-490.937 262.528 -281.47 53.0618 -23.9991 53.0618C233.47 53.0618 442.937 262.528 442.937 519.999C442.937 777.471 233.47 986.936 -23.9991 986.936Z" stroke="#2FA9DF" stroke-width="1.17741" stroke-miterlimit="10"></path><path d="M-23.999 975.162C-274.977 975.162 -479.163 770.976 -479.163 519.999C-479.163 269.021 -274.977 64.836 -23.999 64.836C226.978 64.836 431.163 269.021 431.163 519.999C431.163 770.976 226.978 975.162 -23.999 975.162Z" stroke="#2FA9DF" stroke-width="1.17741" stroke-miterlimit="10"></path><path d="M-23.9991 963.388C-268.484 963.388 -467.389 764.484 -467.389 519.999C-467.389 275.513 -268.484 76.6098 -23.9991 76.6098C220.485 76.6098 419.389 275.513 419.389 519.999C419.389 764.484 220.485 963.388 -23.9991 963.388Z" stroke="#2FA9DF" stroke-width="1.17741" stroke-miterlimit="10"></path><path d="M-23.999 951.614C-261.993 951.614 -455.615 757.994 -455.615 519.999C-455.615 282.007 -261.993 88.3841 -23.999 88.3841C213.994 88.3841 407.615 282.007 407.615 519.999C407.615 757.994 213.994 951.614 -23.999 951.614Z" stroke="#2FA9DF" stroke-width="1.17741" stroke-miterlimit="10"></path><path d="M-23.999 939.839C-255.501 939.839 -443.841 751.499 -443.841 519.999C-443.841 288.497 -255.501 100.158 -23.999 100.158C207.502 100.158 395.841 288.497 395.841 519.999C395.841 751.499 207.502 939.839 -23.999 939.839Z" stroke="#2FA9DF" stroke-width="1.17741" stroke-miterlimit="10"></path><path d="M-23.9991 928.066C-249.007 928.066 -432.067 745.007 -432.067 519.999C-432.067 294.989 -249.007 111.932 -23.9991 111.932C201.008 111.932 384.067 294.989 384.067 519.999C384.067 745.007 201.008 928.066 -23.9991 928.066Z" stroke="#2FA9DF" stroke-width="1.17741" stroke-miterlimit="10"></path><path d="M-23.9991 916.291C-242.516 916.291 -420.293 738.517 -420.293 519.999C-420.293 301.484 -242.516 123.706 -23.9991 123.706C194.517 123.706 372.292 301.484 372.292 519.999C372.292 738.517 194.517 916.291 -23.9991 916.291Z" stroke="#2FA9DF" stroke-width="1.17741" stroke-miterlimit="10"></path><path d="M-23.999 904.517C-236.024 904.517 -408.519 732.023 -408.519 519.999C-408.519 307.974 -236.024 135.48 -23.999 135.48C188.024 135.48 360.518 307.974 360.518 519.999C360.518 732.023 188.024 904.517 -23.999 904.517Z" stroke="#2FA9DF" stroke-width="1.17741" stroke-miterlimit="10"></path><path d="M-23.9991 892.744C-229.531 892.744 -396.745 725.531 -396.745 520C-396.745 314.467 -229.531 147.255 -23.9991 147.255C181.531 147.255 348.744 314.467 348.744 520C348.744 725.531 181.531 892.744 -23.9991 892.744Z" stroke="#2FA9DF" stroke-width="1.17741" stroke-miterlimit="10"></path><path d="M-23.9991 880.969C-223.04 880.969 -384.97 719.041 -384.97 519.999C-384.97 320.961 -223.04 159.028 -23.9991 159.028C175.04 159.028 336.97 320.961 336.97 519.999C336.97 719.041 175.04 880.969 -23.9991 880.969Z" stroke="#2FA9DF" stroke-width="1.17741" stroke-miterlimit="10"></path><path d="M-23.9991 869.196C-216.546 869.196 -373.196 712.546 -373.196 519.999C-373.196 327.452 -216.546 170.803 -23.9991 170.803C168.547 170.803 325.196 327.452 325.196 519.999C325.196 712.546 168.547 869.196 -23.9991 869.196Z" stroke="#2FA9DF" stroke-width="1.17741" stroke-miterlimit="10"></path><path d="M-23.999 857.421C-210.054 857.421 -361.421 706.054 -361.421 519.999C-361.421 333.943 -210.054 182.576 -23.999 182.576C162.056 182.576 313.422 333.943 313.422 519.999C313.422 706.054 162.056 857.421 -23.999 857.421Z" stroke="#2FA9DF" stroke-width="1.17741" stroke-miterlimit="10"></path><path d="M-23.999 845.647C-203.563 845.647 -349.647 699.563 -349.647 519.999C-349.647 340.437 -203.563 194.351 -23.999 194.351C155.564 194.351 301.648 340.437 301.648 519.999C301.648 699.563 155.564 845.647 -23.999 845.647Z" stroke="#2FA9DF" stroke-width="1.17741" stroke-miterlimit="10"></path><path d="M-23.999 833.873C-197.07 833.873 -337.873 693.069 -337.873 519.999C-337.873 346.928 -197.07 206.124 -23.999 206.124C149.07 206.124 289.874 346.928 289.874 519.999C289.874 693.069 149.07 833.873 -23.999 833.873Z" stroke="#2FA9DF" stroke-width="1.17741" stroke-miterlimit="10"></path><path d="M-23.9992 822.099C-190.578 822.099 -326.099 686.577 -326.099 519.999C-326.099 353.42 -190.578 217.899 -23.9992 217.899C142.579 217.899 278.1 353.42 278.1 519.999C278.1 686.577 142.579 822.099 -23.9992 822.099Z" stroke="#2FA9DF" stroke-width="1.17741" stroke-miterlimit="10"></path><path d="M-23.9991 810.325C-184.086 810.325 -314.325 680.086 -314.325 519.999C-314.325 359.914 -184.086 229.673 -23.9991 229.673C136.087 229.673 266.326 359.914 266.326 519.999C266.326 680.086 136.087 810.325 -23.9991 810.325Z" stroke="#2FA9DF" stroke-width="1.17741" stroke-miterlimit="10"></path><path d="M-23.9991 798.551C-177.593 798.551 -302.551 673.593 -302.551 519.999C-302.551 366.405 -177.593 241.447 -23.9991 241.447C129.594 241.447 254.552 366.405 254.552 519.999C254.552 673.593 129.594 798.551 -23.9991 798.551Z" stroke="#2FA9DF" stroke-width="1.17741" stroke-miterlimit="10"></path><path d="M-23.999 786.777C-171.102 786.777 -290.777 667.101 -290.777 519.999C-290.777 372.897 -171.102 253.221 -23.999 253.221C123.103 253.221 242.778 372.897 242.778 519.999C242.778 667.101 123.103 786.777 -23.999 786.777Z" stroke="#2FA9DF" stroke-width="1.17741" stroke-miterlimit="10"></path><path d="M-23.999 775.003C-164.61 775.003 -279.003 660.609 -279.003 519.999C-279.003 379.391 -164.61 264.995 -23.999 264.995C116.61 264.995 231.004 379.391 231.004 519.999C231.004 660.609 116.61 775.003 -23.999 775.003Z" stroke="#2FA9DF" stroke-width="1.17741" stroke-miterlimit="10"></path><path d="M-23.999 763.229C-158.116 763.229 -267.229 654.116 -267.229 519.999C-267.229 385.882 -158.116 276.769 -23.999 276.769C110.117 276.769 219.23 385.882 219.23 519.999C219.23 654.116 110.117 763.229 -23.999 763.229Z" stroke="#2FA9DF" stroke-width="1.17741" stroke-miterlimit="10"></path><path d="M-23.999 751.455C-151.625 751.455 -255.455 647.624 -255.455 519.999C-255.455 392.374 -151.625 288.543 -23.999 288.543C103.626 288.543 207.456 392.374 207.456 519.999C207.456 647.624 103.626 751.455 -23.999 751.455Z" stroke="#2FA9DF" stroke-width="1.17741" stroke-miterlimit="10"></path><path d="M-23.9991 739.681C-145.133 739.681 -243.681 641.133 -243.681 519.999C-243.681 398.867 -145.133 300.317 -23.9991 300.317C97.1337 300.317 195.681 398.867 195.681 519.999C195.681 641.133 97.1337 739.681 -23.9991 739.681Z" stroke="#2FA9DF" stroke-width="1.17741" stroke-miterlimit="10"></path><path d="M-23.9991 727.906C-138.64 727.906 -231.907 634.639 -231.907 519.999C-231.907 405.358 -138.64 312.091 -23.9991 312.091C90.6403 312.091 183.907 405.358 183.907 519.999C183.907 634.639 90.6403 727.906 -23.9991 727.906Z" stroke="#2FA9DF" stroke-width="1.17741" stroke-miterlimit="10"></path><path d="M-23.999 716.132C-132.148 716.132 -220.133 628.147 -220.133 519.999C-220.133 411.85 -132.148 323.865 -23.999 323.865C84.1494 323.865 172.133 411.85 172.133 519.999C172.133 628.147 84.1494 716.132 -23.999 716.132Z" stroke="#2FA9DF" stroke-width="1.17741" stroke-miterlimit="10"></path><path d="M-23.999 704.358C-125.655 704.358 -208.359 621.656 -208.359 519.999C-208.359 418.343 -125.655 335.639 -23.999 335.639C77.6559 335.639 160.359 418.343 160.359 519.999C160.359 621.656 77.6559 704.358 -23.999 704.358Z" stroke="#2FA9DF" stroke-width="1.17741" stroke-miterlimit="10"></path><path d="M-23.999 692.584C-119.163 692.584 -196.584 615.163 -196.584 519.999C-196.584 424.836 -119.163 347.413 -23.999 347.413C71.1637 347.413 148.585 424.836 148.585 519.999C148.585 615.163 71.1637 692.584 -23.999 692.584Z" stroke="#2FA9DF" stroke-width="1.17741" stroke-miterlimit="10"></path><path d="M-23.999 680.81C-112.673 680.81 -184.81 608.671 -184.81 519.999C-184.81 431.327 -112.673 359.188 -23.999 359.188C64.6726 359.188 136.811 431.327 136.811 519.999C136.811 608.671 64.6726 680.81 -23.999 680.81Z" stroke="#2FA9DF" stroke-width="1.17741" stroke-miterlimit="10"></path><path d="M-23.999 669.036C-106.179 669.036 -173.036 602.179 -173.036 519.999C-173.036 437.819 -106.179 370.961 -23.999 370.961C58.1792 370.961 125.037 437.819 125.037 519.999C125.037 602.179 58.1792 669.036 -23.999 669.036Z" stroke="#2FA9DF" stroke-width="1.17741" stroke-miterlimit="10"></path><path d="M-23.9991 657.262C-99.6863 657.262 -161.262 595.686 -161.262 519.999C-161.262 444.313 -99.6863 382.736 -23.9991 382.736C51.687 382.736 113.263 444.313 113.263 519.999C113.263 595.686 51.687 657.262 -23.9991 657.262Z" stroke="#2FA9DF" stroke-width="1.17741" stroke-miterlimit="10"></path><path d="M-23.999 645.488C-93.1963 645.488 -149.488 589.193 -149.488 519.999C-149.488 450.804 -93.1963 394.51 -23.999 394.51C45.196 394.51 101.489 450.804 101.489 519.999C101.489 589.193 45.196 645.488 -23.999 645.488Z" stroke="#2FA9DF" stroke-width="1.17741" stroke-miterlimit="10"></path><path d="M-23.999 633.714C-86.7018 633.714 -137.714 582.703 -137.714 519.999C-137.714 457.296 -86.7018 406.284 -23.999 406.284C38.7026 406.284 89.715 457.296 89.715 519.999C89.715 582.703 38.7026 633.714 -23.999 633.714Z" stroke="#2FA9DF" stroke-width="1.17741" stroke-miterlimit="10"></path><path d="M-23.9991 621.94C-80.2097 621.94 -125.94 576.209 -125.94 519.999C-125.94 463.789 -80.2097 418.058 -23.9991 418.058C32.2103 418.058 77.9407 463.789 77.9407 519.999C77.9407 576.209 32.2103 621.94 -23.9991 621.94Z" stroke="#2FA9DF" stroke-width="1.17741" stroke-miterlimit="10"></path><path d="M-23.999 610.166C-73.7197 610.166 -114.166 569.717 -114.166 519.999C-114.166 470.281 -73.7197 429.832 -23.999 429.832C25.7193 429.832 66.1668 470.281 66.1668 519.999C66.1668 569.717 25.7193 610.166 -23.999 610.166Z" stroke="#2FA9DF" stroke-width="1.17741" stroke-miterlimit="10"></path><path d="M54.3939 519.999C54.3939 563.295 19.2954 598.392 -23.999 598.392C-67.2958 598.392 -102.393 563.295 -102.393 519.999C-102.393 476.705 -67.2958 441.606 -23.999 441.606C19.2954 441.606 54.3939 476.705 54.3939 519.999Z" stroke="#2FA9DF" stroke-width="1.17741" stroke-miterlimit="10"></path></g></g><defs><clipPath id="clip0_6599_100"><rect width="596" height="1140" fill="white"></rect></clipPath></defs></svg>