<?xml version="1.0" encoding="utf-8"?>
<!-- Generator: Adobe Illustrator 23.0.5, SVG Export Plug-In . SVG Version: 6.00 Build 0)  -->
<svg version="1.1" id="Layer_1" xmlns="http://www.w3.org/2000/svg" xmlns:xlink="http://www.w3.org/1999/xlink" x="0px" y="0px"
	 viewBox="0 0 832.1 765.8" enable-background="new 0 0 832.1 765.8" xml:space="preserve">
<path d="M204.9,368.4c14,0,28,0.4,41.9-0.1c19.9-0.7,28.6,8.7,33.7,28C299.1,466.9,347.1,506.3,412,507
	c69.9,0.7,118.3-34.8,138.5-107.3c7-25.2,19.1-32.9,42.7-31.7c20.3,1,40.6,0.1,61,0.2c48.2,0.2,50.7,2.9,44.8,49.2
	C682.4,547.7,548.2,662,415.6,659C269,655.6,142.1,540,131.2,401.2c-1.8-23.2,4.3-33.8,28-32.9C174.4,368.8,189.6,368.3,204.9,368.4
	z"/>
<path fill="#FF6D33" d="M508.5,373.2c-0.1,48.9-43.8,94.2-90.5,93.7c-52.6-0.5-93.4-41.8-93.5-94.4c0-58.5,34.9-95.1,90.4-94.9
	C474.5,277.9,508.6,312.8,508.5,373.2z"/>
</svg>
