<?xml version="1.0" encoding="utf-8"?>
<!-- Generator: Adobe Illustrator 23.0.5, SVG Export Plug-In . SVG Version: 6.00 Build 0)  -->
<svg version="1.1" id="Layer_1" xmlns="http://www.w3.org/2000/svg" xmlns:xlink="http://www.w3.org/1999/xlink" x="0px" y="0px"
	 viewBox="0 0 832.1 765.8" enable-background="new 0 0 832.1 765.8" xml:space="preserve">
<path d="M420.2,195.9c1,34.3-7.6,47.3-40.1,56.3c-68.4,19-103.4,86-84.9,153.2c14.2,51.4,59.2,87.9,114.6,92.9
	c48.9,4.4,107.7-26.7,121.1-76.8c13.3-49.2,40.5-55.1,83.4-53.3c69.9,3,76,7.2,54.6,74.5C633.3,555,555,622,438.3,632.8
	c-106.1,9.8-192.7-35-247-127.2c-55.6-94.5-51.6-191.2,10.5-283.3c40.5-60.2,96.8-96,168.7-107.2c47.8-7.4,49.4-6.2,49.6,42.4"/>
<path fill="#FF6D33" d="M417.3,285.8c48.7,0.3,85.8,36,85.6,82.2c-0.2,52.8-39.3,93-89,91.5c-47.2-1.4-84.8-41.1-84.7-89.3
	C329.2,323.7,369.2,285.4,417.3,285.8z"/>
</svg>
