<?xml version="1.0" encoding="utf-8"?>
<!-- Generator: Adobe Illustrator 23.0.5, SVG Export Plug-In . SVG Version: 6.00 Build 0)  -->
<svg version="1.1" id="Layer_1" xmlns="http://www.w3.org/2000/svg" xmlns:xlink="http://www.w3.org/1999/xlink" x="0px" y="0px"
	 viewBox="0 0 832.1 765.8" style="enable-background:new 0 0 832.1 765.8;" xml:space="preserve">
<style type="text/css">
	.st0{fill:#FF6D33;}
</style>
<path d="M682.5,393.4C679.4,520,579.8,634,423.8,633.9c-153.6,0-258.9-125.9-258.3-256.8c0-0.4,0-0.9,0-1.3
	c1.4-141,112.7-259.6,246-260.1c1.5,0.1,3.1,0.1,4.6,0.2v133.2c-67.6,7.3-117.3,58.7-117.2,124.3c0,0.8,0,1.6,0,2.4
	c1.4,67.4,58.1,124.2,124.7,124.4c67.6,0.1,125.1-57.3,129.2-127.3h129.6C682.6,379.6,682.7,386.5,682.5,393.4z"/>
<path class="st0" d="M416,116.6v132.9c14.8,0.5,43.2,3.7,72.1,21.7c23.9,14.9,37,32.9,40.7,38.1c17.9,25.7,22.2,51.1,23.5,63.7
	h130.3c0.1-19.2-1.5-104.6-68.1-175.9C536.5,113.3,431.6,115.9,416,116.6z"/>
<path class="st0" d="M427.6,289.7c46.2,0.6,84.5,40.8,83.7,87.7c-0.8,46.4-41.2,85.4-87.7,84.5c-48.7-0.9-85.4-40.6-84.2-90.9
	C340.7,321.6,376.1,289,427.6,289.7z"/>
</svg>
