<svg xmlns="http://www.w3.org/2000/svg" width="1282" height="1282" viewBox="0 0 1282 1282" fill="none"><g opacity="0.08"><path d="M641 1281C288.104 1281 1 993.895 1 641C1 288.102 288.104 0.999998 641 0.999998C993.896 0.999998 1281 288.102 1281 641C1281 993.895 993.896 1281 641 1281Z" stroke="#ABE8FB" stroke-miterlimit="10"></path><path d="M641 1268.85C294.805 1268.85 13.1543 987.196 13.1543 641C13.1543 294.804 294.805 13.1533 641 13.1533C987.196 13.1533 1268.85 294.804 1268.85 641C1268.85 987.196 987.196 1268.85 641 1268.85Z" stroke="#ABE8FB" stroke-miterlimit="10"></path><path d="M641.001 1256.69C301.507 1256.69 25.3076 980.493 25.3076 640.998C25.3076 301.504 301.507 25.3059 641.001 25.3059C980.494 25.3059 1256.69 301.504 1256.69 640.998C1256.69 980.493 980.494 1256.69 641.001 1256.69Z" stroke="#ABE8FB" stroke-miterlimit="10"></path><path d="M641.001 1244.54C308.208 1244.54 37.4614 973.79 37.4614 640.999C37.4614 308.207 308.208 37.4602 641.001 37.4602C973.792 37.4602 1244.54 308.207 1244.54 640.999C1244.54 973.79 973.792 1244.54 641.001 1244.54Z" stroke="#ABE8FB" stroke-miterlimit="10"></path><path d="M641.001 1232.38C314.91 1232.38 49.6152 967.091 49.6152 640.998C49.6152 314.907 314.91 49.6137 641.001 49.6137C967.091 49.6137 1232.38 314.907 1232.38 640.998C1232.38 967.091 967.091 1232.38 641.001 1232.38Z" stroke="#ABE8FB" stroke-miterlimit="10"></path><path d="M641.001 1220.23C321.612 1220.23 61.7695 960.388 61.7695 640.999C61.7695 321.609 321.612 61.768 641.001 61.768C960.39 61.768 1220.23 321.609 1220.23 640.999C1220.23 960.388 960.39 1220.23 641.001 1220.23Z" stroke="#ABE8FB" stroke-miterlimit="10"></path><path d="M641.001 1208.08C328.313 1208.08 73.9229 953.685 73.9229 640.998C73.9229 328.312 328.313 73.9214 641.001 73.9214C953.686 73.9214 1208.08 328.312 1208.08 640.998C1208.08 953.685 953.686 1208.08 641.001 1208.08Z" stroke="#ABE8FB" stroke-miterlimit="10"></path><path d="M641.001 1195.92C335.015 1195.92 86.0771 946.986 86.0771 640.999C86.0771 335.012 335.015 86.0755 641.001 86.0755C946.986 86.0755 1195.92 335.012 1195.92 640.999C1195.92 946.986 946.986 1195.92 641.001 1195.92Z" stroke="#ABE8FB" stroke-miterlimit="10"></path><path d="M641.001 1183.77C341.716 1183.77 98.2305 940.283 98.2305 640.999C98.2305 341.714 341.716 98.2295 641.001 98.2295C940.284 98.2295 1183.77 341.714 1183.77 640.999C1183.77 940.283 940.284 1183.77 641.001 1183.77Z" stroke="#ABE8FB" stroke-miterlimit="10"></path><path d="M641.001 1171.61C348.42 1171.61 110.385 933.58 110.385 640.999C110.385 348.417 348.42 110.383 641.001 110.383C933.58 110.383 1171.61 348.417 1171.61 640.999C1171.61 933.58 933.58 1171.61 641.001 1171.61Z" stroke="#ABE8FB" stroke-miterlimit="10"></path><path d="M641.002 1159.46C355.12 1159.46 122.539 926.881 122.539 640.999C122.539 355.117 355.12 122.537 641.002 122.537C926.881 122.537 1159.46 355.117 1159.46 640.999C1159.46 926.881 926.881 1159.46 641.002 1159.46Z" stroke="#ABE8FB" stroke-miterlimit="10"></path><path d="M641.001 1147.31C361.822 1147.31 134.692 920.177 134.692 640.999C134.692 361.819 361.822 134.691 641.001 134.691C920.179 134.691 1147.31 361.819 1147.31 640.999C1147.31 920.177 920.179 1147.31 641.001 1147.31Z" stroke="#ABE8FB" stroke-miterlimit="10"></path><path d="M641.001 1135.15C368.525 1135.15 146.847 913.475 146.847 640.998C146.847 368.521 368.525 146.845 641.001 146.845C913.475 146.845 1135.15 368.521 1135.15 640.998C1135.15 913.475 913.475 1135.15 641.001 1135.15Z" stroke="#ABE8FB" stroke-miterlimit="10"></path><path d="M641.001 1123C375.225 1123 159 906.776 159 640.998C159 375.222 375.225 158.999 641.001 158.999C906.776 158.999 1123 375.222 1123 640.998C1123 906.776 906.776 1123 641.001 1123Z" stroke="#ABE8FB" stroke-miterlimit="10"></path><path d="M641.001 1110.84C381.927 1110.84 171.154 900.072 171.154 640.999C171.154 381.924 381.927 171.153 641.001 171.153C900.074 171.153 1110.85 381.924 1110.85 640.999C1110.85 900.072 900.074 1110.84 641.001 1110.84Z" stroke="#ABE8FB" stroke-miterlimit="10"></path><path d="M641.001 1098.69C388.629 1098.69 183.308 893.37 183.308 640.999C183.308 388.626 388.629 183.307 641.001 183.307C893.371 183.307 1098.69 388.626 1098.69 640.999C1098.69 893.37 893.371 1098.69 641.001 1098.69Z" stroke="#ABE8FB" stroke-miterlimit="10"></path><path d="M641.001 1086.54C395.33 1086.54 195.462 886.671 195.462 640.999C195.462 395.33 395.33 195.46 641.001 195.46C886.671 195.46 1086.54 395.33 1086.54 640.999C1086.54 886.671 886.671 1086.54 641.001 1086.54Z" stroke="#ABE8FB" stroke-miterlimit="10"></path><path d="M641.001 1074.38C402.032 1074.38 207.616 879.967 207.616 640.999C207.616 402.029 402.032 207.614 641.001 207.614C879.969 207.614 1074.38 402.029 1074.38 640.999C1074.38 879.967 879.969 1074.38 641.001 1074.38Z" stroke="#ABE8FB" stroke-miterlimit="10"></path><path d="M641.001 1062.23C408.734 1062.23 219.77 873.265 219.77 640.999C219.77 408.731 408.734 219.768 641.001 219.768C873.266 219.768 1062.23 408.731 1062.23 640.999C1062.23 873.265 873.266 1062.23 641.001 1062.23Z" stroke="#ABE8FB" stroke-miterlimit="10"></path><path d="M641.001 1050.07C415.435 1050.07 231.924 866.566 231.924 640.999C231.924 415.435 415.435 231.922 641.001 231.922C866.566 231.922 1050.08 415.435 1050.08 640.999C1050.08 866.566 866.566 1050.07 641.001 1050.07Z" stroke="#ABE8FB" stroke-miterlimit="10"></path><path d="M641.001 1037.92C422.136 1037.92 244.077 859.862 244.077 640.999C244.077 422.134 422.136 244.076 641.001 244.076C859.863 244.076 1037.92 422.134 1037.92 640.999C1037.92 859.862 859.863 1037.92 641.001 1037.92Z" stroke="#ABE8FB" stroke-miterlimit="10"></path><path d="M641.001 1025.77C428.84 1025.77 256.231 853.16 256.231 640.998C256.231 428.836 428.84 256.23 641.001 256.23C853.162 256.23 1025.77 428.836 1025.77 640.998C1025.77 853.16 853.162 1025.77 641.001 1025.77Z" stroke="#ABE8FB" stroke-miterlimit="10"></path><path d="M641.001 1013.61C435.54 1013.61 268.386 846.461 268.386 640.998C268.386 435.54 435.54 268.384 641.001 268.384C846.461 268.384 1013.61 435.54 1013.61 640.998C1013.61 846.461 846.461 1013.61 641.001 1013.61Z" stroke="#ABE8FB" stroke-miterlimit="10"></path><path d="M641.001 1001.46C442.243 1001.46 280.541 839.757 280.541 640.999C280.541 442.24 442.243 280.538 641.001 280.538C839.759 280.538 1001.46 442.24 1001.46 640.999C1001.46 839.757 839.759 1001.46 641.001 1001.46Z" stroke="#ABE8FB" stroke-miterlimit="10"></path><path d="M641.001 989.306C448.944 989.306 292.694 833.055 292.694 640.999C292.694 448.941 448.944 292.692 641.001 292.692C833.058 292.692 989.307 448.941 989.307 640.999C989.307 833.055 833.058 989.306 641.001 989.306Z" stroke="#ABE8FB" stroke-miterlimit="10"></path><path d="M641.001 977.152C455.645 977.152 304.848 826.355 304.848 640.999C304.848 455.645 455.645 304.846 641.001 304.846C826.356 304.846 977.153 455.645 977.153 640.999C977.153 826.355 826.356 977.152 641.001 977.152Z" stroke="#ABE8FB" stroke-miterlimit="10"></path><path d="M641.001 964.998C462.347 964.998 317.001 819.652 317.001 640.999C317.001 462.345 462.347 316.999 641.001 316.999C819.653 316.999 964.999 462.345 964.999 640.999C964.999 819.652 819.653 964.998 641.001 964.998Z" stroke="#ABE8FB" stroke-miterlimit="10"></path><path d="M641.001 952.844C469.049 952.844 329.156 812.95 329.156 640.998C329.156 469.045 469.049 329.153 641.001 329.153C812.953 329.153 952.845 469.045 952.845 640.998C952.845 812.95 812.953 952.844 641.001 952.844Z" stroke="#ABE8FB" stroke-miterlimit="10"></path><path d="M641.001 940.69C475.75 940.69 341.31 806.25 341.31 640.998C341.31 475.749 475.75 341.307 641.001 341.307C806.251 341.307 940.691 475.749 940.691 640.998C940.691 806.25 806.251 940.69 641.001 940.69Z" stroke="#ABE8FB" stroke-miterlimit="10"></path><path d="M641.001 928.536C482.452 928.536 353.463 799.547 353.463 640.998C353.463 482.45 482.452 353.461 641.001 353.461C799.548 353.461 928.537 482.45 928.537 640.998C928.537 799.547 799.548 928.536 641.001 928.536Z" stroke="#ABE8FB" stroke-miterlimit="10"></path><path d="M641.001 916.382C489.153 916.382 365.618 792.845 365.618 640.999C365.618 489.152 489.153 365.615 641.001 365.615C792.848 365.615 916.384 489.152 916.384 640.999C916.384 792.845 792.848 916.382 641.001 916.382Z" stroke="#ABE8FB" stroke-miterlimit="10"></path><path d="M641.001 904.229C495.854 904.229 377.771 786.145 377.771 640.999C377.771 495.855 495.854 377.769 641.001 377.769C786.146 377.769 904.23 495.855 904.23 640.999C904.23 786.145 786.146 904.229 641.001 904.229Z" stroke="#ABE8FB" stroke-miterlimit="10"></path><path d="M641.001 892.075C502.558 892.075 389.925 779.442 389.925 640.999C389.925 502.555 502.558 389.923 641.001 389.923C779.444 389.923 892.076 502.555 892.076 640.999C892.076 779.442 779.444 892.075 641.001 892.075Z" stroke="#ABE8FB" stroke-miterlimit="10"></path><path d="M641.001 879.921C509.258 879.921 402.079 772.741 402.079 640.999C402.079 509.257 509.258 402.077 641.001 402.077C772.743 402.077 879.922 509.257 879.922 640.999C879.922 772.741 772.743 879.921 641.001 879.921Z" stroke="#ABE8FB" stroke-miterlimit="10"></path><path d="M641.001 867.767C515.96 867.767 414.233 766.04 414.233 640.999C414.233 515.96 515.96 414.23 641.001 414.23C766.041 414.23 867.768 515.96 867.768 640.999C867.768 766.04 766.041 867.767 641.001 867.767Z" stroke="#ABE8FB" stroke-miterlimit="10"></path><path d="M641.001 855.613C522.662 855.613 426.387 759.337 426.387 640.999C426.387 522.66 522.662 426.384 641.001 426.384C759.338 426.384 855.614 522.66 855.614 640.999C855.614 759.337 759.338 855.613 641.001 855.613Z" stroke="#ABE8FB" stroke-miterlimit="10"></path><path d="M641.001 843.459C529.363 843.459 438.541 752.636 438.541 640.999C438.541 529.362 529.363 438.538 641.001 438.538C752.638 438.538 843.46 529.362 843.46 640.999C843.46 752.636 752.638 843.459 641.001 843.459Z" stroke="#ABE8FB" stroke-miterlimit="10"></path><path d="M641.001 831.305C536.066 831.305 450.694 745.935 450.694 640.999C450.694 536.063 536.066 450.692 641.001 450.692C745.935 450.692 831.306 536.063 831.306 640.999C831.306 745.935 745.935 831.305 641.001 831.305Z" stroke="#ABE8FB" stroke-miterlimit="10"></path><path d="M641.001 819.151C542.767 819.151 462.848 739.232 462.848 640.999C462.848 542.766 542.767 462.846 641.001 462.846C739.233 462.846 819.152 542.766 819.152 640.999C819.152 739.232 739.233 819.151 641.001 819.151Z" stroke="#ABE8FB" stroke-miterlimit="10"></path><path d="M641.001 806.998C549.467 806.998 475.002 732.531 475.002 640.999C475.002 549.467 549.467 475 641.001 475C732.533 475 806.999 549.467 806.999 640.999C806.999 732.531 732.533 806.998 641.001 806.998Z" stroke="#ABE8FB" stroke-miterlimit="10"></path><path d="M641.001 794.844C556.171 794.844 487.156 725.83 487.156 640.999C487.156 556.168 556.171 487.154 641.001 487.154C725.83 487.154 794.845 556.168 794.845 640.999C794.845 725.83 725.83 794.844 641.001 794.844Z" stroke="#ABE8FB" stroke-miterlimit="10"></path><path d="M641.001 782.69C562.872 782.69 499.31 719.127 499.31 640.999C499.31 562.871 562.872 499.307 641.001 499.307C719.129 499.307 782.691 562.871 782.691 640.999C782.691 719.127 719.129 782.69 641.001 782.69Z" stroke="#ABE8FB" stroke-miterlimit="10"></path><path d="M641.001 770.536C569.572 770.536 511.464 712.425 511.464 640.999C511.464 569.571 569.572 511.461 641.001 511.461C712.428 511.461 770.537 569.571 770.537 640.999C770.537 712.425 712.428 770.536 641.001 770.536Z" stroke="#ABE8FB" stroke-miterlimit="10"></path><path d="M641.001 758.382C576.276 758.382 523.618 705.725 523.618 640.999C523.618 576.273 576.276 523.615 641.001 523.615C705.725 523.615 758.383 576.273 758.383 640.999C758.383 705.725 705.725 758.382 641.001 758.382Z" stroke="#ABE8FB" stroke-miterlimit="10"></path><path d="M641.001 746.228C582.977 746.228 535.771 699.023 535.771 640.999C535.771 582.976 582.977 535.769 641.001 535.769C699.024 535.769 746.229 582.976 746.229 640.999C746.229 699.023 699.024 746.228 641.001 746.228Z" stroke="#ABE8FB" stroke-miterlimit="10"></path><path d="M641.001 734.074C589.676 734.074 547.925 692.321 547.925 640.999C547.925 589.676 589.676 547.923 641.001 547.923C692.323 547.923 734.075 589.676 734.075 640.999C734.075 692.321 692.323 734.074 641.001 734.074Z" stroke="#ABE8FB" stroke-miterlimit="10"></path><path d="M721.923 640.999C721.923 685.691 685.692 721.92 641.001 721.92C596.308 721.92 560.078 685.691 560.078 640.999C560.078 596.308 596.308 560.077 641.001 560.077C685.692 560.077 721.923 596.308 721.923 640.999Z" stroke="#ABE8FB" stroke-miterlimit="10"></path></g></svg>